<?xml version="1.0" encoding="utf-8"?>
<!-- Generator: Adobe Illustrator 26.0.3, SVG Export Plug-In . SVG Version: 6.00 Build 0)  -->
<svg version="1.1" id="Layer_1" xmlns="http://www.w3.org/2000/svg" xmlns:xlink="http://www.w3.org/1999/xlink" x="0px" y="0px"
	 viewBox="0 0 66.58 60.14" style="enable-background:new 0 0 66.58 60.14;" xml:space="preserve">
<style type="text/css">
	.st0{fill:#FF80A0;}
	.st1{fill:#86364A;}
</style>
<g>
	<polygon class="st0" points="34.14,45.36 15.54,58.87 22.64,37 4.04,23.49 27.03,23.49 34.14,1.62 41.25,23.49 64.24,23.49 
		45.64,37 52.74,58.87 	"/>
	<path class="st1" d="M34.14,3.24l6.52,20.06l0.22,0.69h0.73H62.7l-17.06,12.4l-0.59,0.43l0.22,0.69l6.52,20.06l-17.06-12.4
		l-0.59-0.43l-0.59,0.43l-17.06,12.4l6.52-20.06l0.22-0.69l-0.59-0.43L5.58,23.99h21.09h0.73l0.22-0.69L34.14,3.24 M34.14,0
		l-7.47,22.99H2.5l19.55,14.21l-7.47,22.99l19.55-14.21l19.55,14.21l-7.47-22.99l19.55-14.21H41.61L34.14,0L34.14,0z"/>
</g>
</svg>
