<?xml version="1.0" encoding="utf-8"?>
<!-- Generator: Adobe Illustrator 26.0.3, SVG Export Plug-In . SVG Version: 6.00 Build 0)  -->
<svg version="1.1" id="Layer_1" xmlns="http://www.w3.org/2000/svg" xmlns:xlink="http://www.w3.org/1999/xlink" x="0px" y="0px"
	 viewBox="0 0 66.58 60.14" style="enable-background:new 0 0 66.58 60.14;" xml:space="preserve">
<style type="text/css">
	.st0{fill:#EFD29C;}
	.st1{fill:#A28959;}
</style>
<g>
	<path class="st0" d="M33.29,58.64C15.76,58.64,1.5,44.38,1.5,26.86c0-6.96,2.3-13.7,6.45-19.18c-0.77,2.5-1.16,5.11-1.16,7.75
		c0,14.61,11.89,26.5,26.5,26.5c14.61,0,26.5-11.89,26.5-26.5c0-2.64-0.39-5.25-1.16-7.75c4.14,5.48,6.45,12.22,6.45,19.18
		C65.08,44.38,50.82,58.64,33.29,58.64z"/>
	<path class="st1" d="M60.66,12.78c2.22,4.31,3.41,9.14,3.41,14.08c0,16.98-13.81,30.79-30.79,30.79S2.5,43.83,2.5,26.86
		c0-4.94,1.2-9.76,3.41-14.08c-0.08,0.88-0.13,1.76-0.13,2.65c0,15.16,12.34,27.5,27.5,27.5s27.5-12.34,27.5-27.5
		C60.79,14.54,60.75,13.66,60.66,12.78 M55.31,2.56c2.21,3.78,3.49,8.17,3.49,12.86c0,14.08-11.42,25.5-25.5,25.5
		s-25.5-11.42-25.5-25.5c0-4.69,1.27-9.09,3.49-12.86C4.66,8.56,0.5,17.22,0.5,26.86c0,18.11,14.68,32.79,32.79,32.79
		s32.79-14.68,32.79-32.79C66.08,17.22,61.92,8.56,55.31,2.56L55.31,2.56z"/>
</g>
</svg>
